Coordinates
version=1
nRows=5
nColumns=42
inDegrees=yes

Units are S.I. units (second, meters, Newtons, ...)
If the header above contains a line with 'inDegrees', this indicates whether rotational values are in degrees (yes) or radians (no).

endheader
time	pelvis_tilt	pelvis_list	pelvis_rotation	pelvis_tx	pelvis_ty	pelvis_tz	hip_flexion_r	hip_adduction_r	hip_rotation_r	knee_angle_r	knee_adduction_r	knee_angle_r_beta	ankle_angle_r	subtalar_angle_r	mtp_angle_r	hip_flexion_l	hip_adduction_l	hip_rotation_l	knee_angle_l	knee_adduction_l	knee_angle_l_beta	ankle_angle_l	subtalar_angle_l	mtp_angle_l	lumbar_extension	lumbar_bending	lumbar_rotation	arm_flex_r	arm_add_r	arm_rot_r	elbow_flex_r	pro_sup_r	wrist_flex_r	wrist_dev_r	arm_flex_l	arm_add_l	arm_rot_l	elbow_flex_l	pro_sup_l	wrist_flex_l	wrist_dev_l
      0.77500000	      4.63238887	     -5.13914378	     -8.83084876	      0.23443012	      0.95009609	      0.29531653	     37.06606995	     -4.80173600	      6.82056225	     71.83129296	      5.85288448	      1.25369257	    -15.42853789	     -4.90181616	     -0.00000000	     21.64218181	     -9.12607557	    -19.86554224	     28.70204149	      4.70865390	      0.50094513	      1.00053110	     -5.99449988	    -10.00000000	    -39.98770508	     11.42827619	      4.79358173	     -8.59324549	     -4.20782189	    -25.07706467	     54.05315037	     90.00000001	      0.00000000	      0.00000000	    -28.32632792	    -33.62024132	    -27.49753908	     55.99199650	     90.00000001	      0.00000000	      0.00000000
      0.78000000	      5.29217178	     -4.99519375	     -9.04351629	      0.23446638	      0.95520888	      0.29372845	     38.14219674	     -5.56152062	      4.64932027	     66.67003744	      5.85288448	      1.16361167	    -12.97248217	     -2.46685550	     -0.00000000	     19.96784168	     -8.81659190	    -21.00736038	     27.07321442	      4.70865390	      0.47251673	     -0.41673044	     -4.95267965	    -10.00000000	    -41.72591034	     11.43772169	      4.94369912	     -8.32250279	     -4.07386417	    -24.54699086	     53.59823211	     90.00000001	      0.00000000	      0.00000000	    -26.49610545	    -34.15922304	    -26.76555431	     58.48116359	     90.00000001	      0.00000000	      0.00000000
      0.78500000	      5.66841262	     -4.56046512	     -9.39282127	      0.23417178	      0.95933585	      0.29247253	     39.58374947	     -4.75868775	      5.71879476	     63.20968952	      5.85288448	      1.10321720	     -8.90775081	      2.00804863	     -0.00000000	     18.57139367	     -8.12343050	    -22.16315389	     25.22618824	      4.70865390	      0.44028004	     -1.71310537	     -4.42867693	    -10.00000000	    -43.06239303	     11.05997877	      5.03538331	     -7.92432874	     -3.82747751	    -24.16754657	     52.95958610	     90.00000001	      0.00000000	      0.00000000	    -24.58363940	    -34.74126838	    -25.61343346	     61.18388049	     90.00000001	      0.00000000	      0.00000000
      0.79000000	      6.21954407	     -4.42415600	     -9.65017762	      0.23511019	      0.96449179	      0.29093795	     40.95655569	     -4.56607066	      3.75841983	     59.35677480	      5.85288448	      1.03597115	    -22.32476437	     -3.64457451	     -0.00000000	     17.01517074	     -7.74121611	    -23.04954631	     23.65839436	      4.70865390	      0.41291688	     -2.82268927	     -3.11104622	    -10.00000000	    -44.57174339	     11.12433554	      5.05614776	     -7.59134245	     -3.78493006	    -23.73423204	     52.62346380	     90.00000001	      0.00000000	      0.00000000	    -22.92988110	    -35.33864749	    -24.43732081	     63.53952572	     90.00000001	      0.00000000	      0.00000000
      0.79500000	      6.56676458	     -4.02474156	    -10.01949259	      0.23605364	      0.96910292	      0.28981762	     41.80408552	     -4.93041402	      1.32379515	     54.45492347	      5.85288448	      0.95041771	    -34.57412057	     -5.87457321	     -0.00000000	     15.53329712	     -6.99401585	    -24.16693060	     21.63707833	      4.70865390	      0.37763826	     -4.71937822	     -2.67122014	    -10.00000000	    -45.70091562	     10.88551044	      5.34174292	     -7.37818127	     -3.89696929	    -23.07318454	     51.70702034	     90.00000001	      0.00000000	      0.00000000	    -20.53449843	    -35.98922456	    -22.93911809	     65.56137708	     90.00000001	      0.00000000	      0.00000000
